<?xml version="1.0" standalone="no"?>
<!DOCTYPE svg PUBLIC "-//W3C//DTD SVG 20010904//EN"
 "http://www.w3.org/TR/2001/REC-SVG-20010904/DTD/svg10.dtd">
<svg version="1.0" xmlns="http://www.w3.org/2000/svg"
 width="200.000000pt" height="200.000000pt" viewBox="0 0 200.000000 200.000000"
 preserveAspectRatio="xMidYMid meet">
<metadata>
Created by potrace 1.11, written by Peter Selinger 2001-2013
</metadata>
<g transform="translate(0.000000,200.000000) scale(0.100000,-0.100000)"
fill="#000000" stroke="none">
<path d="M759 1890 c-82 -14 -127 -76 -133 -183 -7 -119 -63 -179 -181 -192
-73 -9 -106 -25 -139 -67 -34 -46 -42 -99 -22 -152 27 -70 83 -106 165 -106
61 0 109 -16 145 -49 34 -32 45 -58 57 -136 11 -77 -2 -126 -43 -160 -42 -35
-68 -45 -141 -50 -105 -8 -169 -69 -169 -160 0 -51 21 -94 62 -128 30 -26 50
-32 143 -41 99 -10 149 -72 162 -196 10 -108 70 -164 175 -164 103 0 170 71
170 180 0 69 34 133 85 161 38 22 58 24 175 23 31 0 81 -23 103 -47 24 -28 47
-88 47 -126 0 -136 127 -220 242 -161 64 33 94 108 74 191 -8 35 -75 102 -104
104 -9 1 -35 3 -57 5 -143 11 -205 78 -205 223 0 119 74 176 237 180 30 1 93
58 109 98 53 125 -78 260 -202 208 -74 -31 -99 -69 -107 -162 -9 -102 -49
-162 -121 -181 -17 -4 -63 -7 -103 -7 -59 1 -79 6 -111 27 -47 32 -72 81 -78
155 -6 75 -25 115 -69 148 -31 25 -49 30 -123 35 -50 4 -101 14 -119 23 -60
32 -92 107 -88 206 5 108 60 163 179 180 89 13 138 44 161 105 45 118 -52 238
-176 216z m186 -1080 c66 -33 92 -91 97 -220 1 -33 -16 -75 -45 -112 -42 -53
-198 -68 -282 -28 -59 29 -86 74 -93 155 -9 117 29 191 114 220 51 17 158 10
209 -15z"/>
</g>
</svg>
